<?xml version="1.0" encoding="utf-8"?>
<!-- Generator: Adobe Illustrator 24.0.0, SVG Export Plug-In . SVG Version: 6.00 Build 0)  -->
<svg version="1.0" id="Layer_1" xmlns="http://www.w3.org/2000/svg" xmlns:xlink="http://www.w3.org/1999/xlink" x="0px" y="0px"
	 viewBox="0 0 841.89 595.28" style="enable-background:new 0 0 841.89 595.28;" xml:space="preserve">
<style type="text/css">
	.st0{fill:#ED2123;}
	.st1{fill:#FFFFFF;}
	.st2{fill:#272727;}
</style>
<path class="st0" d="M311.72,253.36c-2.12-7.91-8.35-14.15-16.26-16.26c-14.35-3.85-71.87-3.85-71.87-3.85s-57.53,0-71.87,3.85
	c-7.91,2.11-14.15,8.35-16.27,16.26c-3.84,14.35-3.84,44.28-3.84,44.28s0,29.93,3.84,44.28c2.12,7.92,8.35,14.15,16.27,16.26
	c14.35,3.84,71.87,3.84,71.87,3.84s57.52,0,71.87-3.84c7.91-2.12,14.15-8.35,16.26-16.26c3.84-14.35,3.84-44.28,3.84-44.28
	S315.56,267.71,311.72,253.36"/>
<polygon class="st1" points="205.19,325.23 252.98,297.64 205.19,270.05 "/>
<path class="st2" d="M398.62,350.4c-3.64-2.45-6.23-6.27-7.76-11.45c-1.54-5.17-2.3-12.06-2.3-20.65V306.6
	c0-8.68,0.87-15.66,2.63-20.92c1.75-5.26,4.49-9.1,8.22-11.51c3.73-2.41,8.62-3.62,14.67-3.62c5.96,0,10.74,1.23,14.34,3.68
	c3.6,2.46,6.22,6.29,7.89,11.51c1.66,5.22,2.5,12.17,2.5,20.85v11.71c0,8.6-0.81,15.5-2.43,20.72c-1.62,5.22-4.25,9.03-7.89,11.44
	c-3.64,2.41-8.57,3.62-14.8,3.62C407.28,354.09,402.26,352.86,398.62,350.4 M419.01,337.77c1.01-2.63,1.51-6.93,1.51-12.89v-25.13
	c0-5.79-0.51-10.02-1.51-12.69c-1.01-2.68-2.79-4.01-5.33-4.01c-2.46,0-4.19,1.34-5.2,4.01c-1.01,2.67-1.51,6.91-1.51,12.69v25.13
	c0,5.96,0.48,10.26,1.45,12.89c0.97,2.63,2.72,3.95,5.26,3.95C416.23,341.72,418,340.41,419.01,337.77"/>
<path class="st2" d="M678.03,318.5v4.08c0,5.17,0.15,9.06,0.46,11.64c0.31,2.59,0.94,4.47,1.91,5.66c0.96,1.18,2.46,1.78,4.47,1.78
	c2.72,0,4.58-1.05,5.59-3.16c1.01-2.11,1.55-5.61,1.65-10.52l15.65,0.92c0.09,0.7,0.13,1.67,0.13,2.89c0,7.46-2.04,13.03-6.12,16.71
	c-4.08,3.68-9.85,5.53-17.3,5.53c-8.95,0-15.22-2.81-18.81-8.42c-3.6-5.61-5.39-14.29-5.39-26.05v-14.08
	c0-12.1,1.86-20.94,5.59-26.51c3.73-5.57,10.11-8.35,19.14-8.35c6.23,0,11.01,1.14,14.34,3.42c3.33,2.28,5.68,5.83,7.04,10.65
	c1.36,4.83,2.04,11.49,2.04,20v13.81H678.03z M680.33,284.56c-0.92,1.14-1.54,3-1.84,5.59c-0.31,2.59-0.46,6.51-0.46,11.77v5.79
	h13.29v-5.79c0-5.17-0.18-9.1-0.52-11.77c-0.35-2.67-0.99-4.56-1.91-5.66c-0.92-1.1-2.35-1.64-4.28-1.64
	C682.68,282.84,681.26,283.42,680.33,284.56"/>
<path class="st2" d="M354.41,316.99l-20.65-74.59h18.02l7.24,33.81c1.84,8.33,3.2,15.43,4.08,21.31h0.53
	c0.61-4.21,1.97-11.27,4.08-21.18l7.5-33.94h18.02l-20.92,74.59v35.79h-17.89V316.99z"/>
<path class="st2" d="M497.43,272.13v80.64h-14.21l-1.58-9.87h-0.4c-3.86,7.45-9.65,11.18-17.37,11.18c-5.35,0-9.29-1.75-11.84-5.26
	c-2.55-3.51-3.81-8.99-3.81-16.44v-60.25h18.15v59.2c0,3.6,0.39,6.16,1.18,7.7c0.79,1.54,2.1,2.3,3.95,2.3
	c1.58,0,3.09-0.48,4.54-1.45c1.45-0.97,2.52-2.19,3.22-3.68v-64.07H497.43z"/>
<path class="st2" d="M590.55,272.13v80.64h-14.21l-1.58-9.87h-0.39c-3.86,7.45-9.65,11.18-17.37,11.18c-5.35,0-9.3-1.75-11.84-5.26
	c-2.54-3.51-3.81-8.99-3.81-16.44v-60.25h18.15v59.2c0,3.6,0.39,6.16,1.18,7.7c0.79,1.54,2.1,2.3,3.95,2.3
	c1.58,0,3.09-0.48,4.54-1.45c1.45-0.97,2.52-2.19,3.22-3.68v-64.07H590.55z"/>
<polygon class="st2" points="546.76,257 528.74,257 528.74,352.77 510.98,352.77 510.98,257 492.95,257 492.95,242.4 546.76,242.4 
	"/>
<path class="st2" d="M650.63,285.02c-1.1-5.09-2.87-8.77-5.33-11.05c-2.46-2.28-5.83-3.42-10.13-3.42c-3.33,0-6.45,0.94-9.34,2.83
	c-2.89,1.89-5.13,4.36-6.71,7.43h-0.13l0-42.49h-17.5v114.45h14.99l1.84-7.63h0.39c1.4,2.72,3.51,4.87,6.32,6.45
	c2.8,1.58,5.92,2.37,9.34,2.37c6.14,0,10.65-2.83,13.55-8.48c2.89-5.66,4.34-14.49,4.34-26.51V306.2
	C652.28,297.17,651.73,290.11,650.63,285.02 M633.99,317.91c0,5.88-0.24,10.48-0.72,13.81c-0.48,3.33-1.29,5.7-2.43,7.1
	c-1.14,1.4-2.68,2.11-4.6,2.11c-1.49,0-2.87-0.35-4.14-1.05c-1.27-0.7-2.3-1.75-3.09-3.16v-45.78c0.61-2.19,1.66-3.99,3.16-5.39
	c1.49-1.4,3.11-2.11,4.87-2.11c1.84,0,3.27,0.72,4.27,2.17c1.01,1.45,1.71,3.88,2.1,7.3c0.39,3.42,0.59,8.29,0.59,14.6V317.91z"/>
</svg>
